<svg width="213" height="327" viewBox="0 0 213 327" fill="none" xmlns="http://www.w3.org/2000/svg">
<g clip-path="url(#clip0_1121_426)">
<rect width="213" height="327" fill="white"/>
<path d="M3 5.53333L28.6667 -4L36 18C34.5062 11.5222 25.8148 -0.0399998 3 5.53333Z" stroke="black" stroke-opacity="0.2"/>
<path d="M3 35.5333L28.6667 26L36 48C34.5062 41.5222 25.8148 29.96 3 35.5333Z" stroke="black" stroke-opacity="0.2"/>
<path d="M99 5.53333L124.667 -4L132 18C130.506 11.5222 121.815 -0.0399998 99 5.53333Z" stroke="black" stroke-opacity="0.2"/>
<path d="M99 35.5333L124.667 26L132 48C130.506 41.5222 121.815 29.96 99 35.5333Z" stroke="black" stroke-opacity="0.2"/>
<path d="M51 5.53333L76.6667 -4L84 18C82.5062 11.5222 73.8148 -0.0399998 51 5.53333Z" stroke="black" stroke-opacity="0.2"/>
<path d="M51 35.5333L76.6667 26L84 48C82.5062 41.5222 73.8148 29.96 51 35.5333Z" stroke="black" stroke-opacity="0.2"/>
<path d="M147 5.53333L172.667 -4L180 18C178.506 11.5222 169.815 -0.0399998 147 5.53333Z" stroke="black" stroke-opacity="0.2"/>
<path d="M147 35.5333L172.667 26L180 48C178.506 41.5222 169.815 29.96 147 35.5333Z" stroke="black" stroke-opacity="0.2"/>
<path d="M195 5.53333L220.667 -4L228 18C226.506 11.5222 217.815 -0.0399998 195 5.53333Z" stroke="black" stroke-opacity="0.2"/>
<path d="M195 35.5333L220.667 26L228 48C226.506 41.5222 217.815 29.96 195 35.5333Z" stroke="black" stroke-opacity="0.2"/>
<path d="M24 14.4667L-2.44444 24L-10 2C-8.4609 8.47778 0.493828 20.04 24 14.4667Z" stroke="black" stroke-opacity="0.2"/>
<path d="M24 44.4667L-2.44444 54L-10 32C-8.4609 38.4778 0.493828 50.04 24 44.4667Z" stroke="black" stroke-opacity="0.2"/>
<path d="M120 14.4667L93.5556 24L86 2C87.5391 8.47778 96.4938 20.04 120 14.4667Z" stroke="black" stroke-opacity="0.2"/>
<path d="M120 44.4667L93.5556 54L86 32C87.5391 38.4778 96.4938 50.04 120 44.4667Z" stroke="black" stroke-opacity="0.2"/>
<path d="M72 14.4667L45.5556 24L38 2C39.5391 8.47778 48.4938 20.04 72 14.4667Z" stroke="black" stroke-opacity="0.2"/>
<path d="M72 44.4667L45.5556 54L38 32C39.5391 38.4778 48.4938 50.04 72 44.4667Z" stroke="black" stroke-opacity="0.2"/>
<path d="M168 14.4667L141.556 24L134 2C135.539 8.47778 144.494 20.04 168 14.4667Z" stroke="black" stroke-opacity="0.2"/>
<path d="M168 44.4667L141.556 54L134 32C135.539 38.4778 144.494 50.04 168 44.4667Z" stroke="black" stroke-opacity="0.2"/>
<path d="M216 14.4667L189.556 24L182 2C183.539 8.47778 192.494 20.04 216 14.4667Z" stroke="black" stroke-opacity="0.2"/>
<path d="M216 44.4667L189.556 54L182 32C183.539 38.4778 192.494 50.04 216 44.4667Z" stroke="black" stroke-opacity="0.2"/>
<path d="M3 125.533L28.6667 116L36 138C34.5062 131.522 25.8148 119.96 3 125.533Z" stroke="black" stroke-opacity="0.2"/>
<path d="M99 125.533L124.667 116L132 138C130.506 131.522 121.815 119.96 99 125.533Z" stroke="black" stroke-opacity="0.2"/>
<path d="M51 125.533L76.6667 116L84 138C82.5062 131.522 73.8148 119.96 51 125.533Z" stroke="black" stroke-opacity="0.2"/>
<path d="M147 125.533L172.667 116L180 138C178.506 131.522 169.815 119.96 147 125.533Z" stroke="black" stroke-opacity="0.2"/>
<path d="M195 126.533L220.667 117L228 139C226.506 132.522 217.815 120.96 195 126.533Z" stroke="black" stroke-opacity="0.2"/>
<path d="M24 134.467L-2.44444 144L-10 122C-8.4609 128.478 0.493828 140.04 24 134.467Z" stroke="black" stroke-opacity="0.2"/>
<path d="M120 134.467L93.5556 144L86 122C87.5391 128.478 96.4938 140.04 120 134.467Z" stroke="black" stroke-opacity="0.2"/>
<path d="M72 134.467L45.5556 144L38 122C39.5391 128.478 48.4938 140.04 72 134.467Z" stroke="black" stroke-opacity="0.2"/>
<path d="M168 134.467L141.556 144L134 122C135.539 128.478 144.494 140.04 168 134.467Z" stroke="black" stroke-opacity="0.2"/>
<path d="M216 134.467L189.556 144L182 122C183.539 128.478 192.494 140.04 216 134.467Z" stroke="black" stroke-opacity="0.2"/>
<path d="M3 65.5333L28.6667 56L36 78C34.5062 71.5222 25.8148 59.96 3 65.5333Z" stroke="black" stroke-opacity="0.2"/>
<path d="M99 65.5333L124.667 56L132 78C130.506 71.5222 121.815 59.96 99 65.5333Z" stroke="black" stroke-opacity="0.2"/>
<path d="M51 65.5333L76.6667 56L84 78C82.5062 71.5222 73.8148 59.96 51 65.5333Z" stroke="black" stroke-opacity="0.2"/>
<path d="M147 65.5333L172.667 56L180 78C178.506 71.5222 169.815 59.96 147 65.5333Z" stroke="black" stroke-opacity="0.2"/>
<path d="M195 65.5333L220.667 56L228 78C226.506 71.5222 217.815 59.96 195 65.5333Z" stroke="black" stroke-opacity="0.2"/>
<path d="M24 74.4667L-2.44444 84L-10 62C-8.4609 68.4778 0.493828 80.04 24 74.4667Z" stroke="black" stroke-opacity="0.2"/>
<path d="M120 74.4667L93.5556 84L86 62C87.5391 68.4778 96.4938 80.04 120 74.4667Z" stroke="black" stroke-opacity="0.2"/>
<path d="M72 74.4667L45.5556 84L38 62C39.5391 68.4778 48.4938 80.04 72 74.4667Z" stroke="black" stroke-opacity="0.2"/>
<path d="M168 74.4667L141.556 84L134 62C135.539 68.4778 144.494 80.04 168 74.4667Z" stroke="black" stroke-opacity="0.2"/>
<path d="M216 74.4667L189.556 84L182 62C183.539 68.4778 192.494 80.04 216 74.4667Z" stroke="black" stroke-opacity="0.2"/>
<path d="M3 95.5333L28.6667 86L36 108C34.5062 101.522 25.8148 89.96 3 95.5333Z" stroke="black" stroke-opacity="0.2"/>
<path d="M99 95.5333L124.667 86L132 108C130.506 101.522 121.815 89.96 99 95.5333Z" stroke="black" stroke-opacity="0.2"/>
<path d="M51 95.5333L76.6667 86L84 108C82.5062 101.522 73.8148 89.96 51 95.5333Z" stroke="black" stroke-opacity="0.2"/>
<path d="M147 95.5333L172.667 86L180 108C178.506 101.522 169.815 89.96 147 95.5333Z" stroke="black" stroke-opacity="0.2"/>
<path d="M195 95.5333L220.667 86L228 108C226.506 101.522 217.815 89.96 195 95.5333Z" stroke="black" stroke-opacity="0.2"/>
<path d="M24 104.467L-2.44444 114L-10 92C-8.4609 98.4778 0.493828 110.04 24 104.467Z" stroke="black" stroke-opacity="0.2"/>
<path d="M120 104.467L93.5556 114L86 92C87.5391 98.4778 96.4938 110.04 120 104.467Z" stroke="black" stroke-opacity="0.2"/>
<path d="M72 104.467L45.5556 114L38 92C39.5391 98.4778 48.4938 110.04 72 104.467Z" stroke="black" stroke-opacity="0.2"/>
<path d="M168 104.467L141.556 114L134 92C135.539 98.4778 144.494 110.04 168 104.467Z" stroke="black" stroke-opacity="0.2"/>
<path d="M216 104.467L189.556 114L182 92C183.539 98.4778 192.494 110.04 216 104.467Z" stroke="black" stroke-opacity="0.2"/>
<path d="M3 155.533L28.6667 146L36 168C34.5062 161.522 25.8148 149.96 3 155.533Z" stroke="black" stroke-opacity="0.2"/>
<path d="M3 185.533L28.6667 176L36 198C34.5062 191.522 25.8148 179.96 3 185.533Z" stroke="black" stroke-opacity="0.2"/>
<path d="M99 155.533L124.667 146L132 168C130.506 161.522 121.815 149.96 99 155.533Z" stroke="black" stroke-opacity="0.2"/>
<path d="M99 185.533L124.667 176L132 198C130.506 191.522 121.815 179.96 99 185.533Z" stroke="black" stroke-opacity="0.2"/>
<path d="M51 155.533L76.6667 146L84 168C82.5062 161.522 73.8148 149.96 51 155.533Z" stroke="black" stroke-opacity="0.2"/>
<path d="M51 185.533L76.6667 176L84 198C82.5062 191.522 73.8148 179.96 51 185.533Z" stroke="black" stroke-opacity="0.2"/>
<path d="M147 155.533L172.667 146L180 168C178.506 161.522 169.815 149.96 147 155.533Z" stroke="black" stroke-opacity="0.2"/>
<path d="M147 185.533L172.667 176L180 198C178.506 191.522 169.815 179.96 147 185.533Z" stroke="black" stroke-opacity="0.2"/>
<path d="M195 155.533L220.667 146L228 168C226.506 161.522 217.815 149.96 195 155.533Z" stroke="black" stroke-opacity="0.2"/>
<path d="M195 185.533L220.667 176L228 198C226.506 191.522 217.815 179.96 195 185.533Z" stroke="black" stroke-opacity="0.2"/>
<path d="M24 164.467L-2.44444 174L-10 152C-8.4609 158.478 0.493828 170.04 24 164.467Z" stroke="black" stroke-opacity="0.2"/>
<path d="M24 194.467L-2.44444 204L-10 182C-8.4609 188.478 0.493828 200.04 24 194.467Z" stroke="black" stroke-opacity="0.2"/>
<path d="M120 164.467L93.5556 174L86 152C87.5391 158.478 96.4938 170.04 120 164.467Z" stroke="black" stroke-opacity="0.2"/>
<path d="M120 194.467L93.5556 204L86 182C87.5391 188.478 96.4938 200.04 120 194.467Z" stroke="black" stroke-opacity="0.2"/>
<path d="M72 164.467L45.5556 174L38 152C39.5391 158.478 48.4938 170.04 72 164.467Z" stroke="black" stroke-opacity="0.2"/>
<path d="M72 194.467L45.5556 204L38 182C39.5391 188.478 48.4938 200.04 72 194.467Z" stroke="black" stroke-opacity="0.2"/>
<path d="M168 164.467L141.556 174L134 152C135.539 158.478 144.494 170.04 168 164.467Z" stroke="black" stroke-opacity="0.2"/>
<path d="M168 194.467L141.556 204L134 182C135.539 188.478 144.494 200.04 168 194.467Z" stroke="black" stroke-opacity="0.2"/>
<path d="M216 164.467L189.556 174L182 152C183.539 158.478 192.494 170.04 216 164.467Z" stroke="black" stroke-opacity="0.2"/>
<path d="M216 194.467L189.556 204L182 182C183.539 188.478 192.494 200.04 216 194.467Z" stroke="black" stroke-opacity="0.2"/>
<path d="M3 275.533L28.6667 266L36 288C34.5062 281.522 25.8148 269.96 3 275.533Z" stroke="black" stroke-opacity="0.2"/>
<path d="M3 329.533L28.6667 320L36 342C34.5062 335.522 25.8148 323.96 3 329.533Z" stroke="black" stroke-opacity="0.2"/>
<path d="M99 275.533L124.667 266L132 288C130.506 281.522 121.815 269.96 99 275.533Z" stroke="black" stroke-opacity="0.2"/>
<path d="M99 329.533L124.667 320L132 342C130.506 335.522 121.815 323.96 99 329.533Z" stroke="black" stroke-opacity="0.2"/>
<path d="M51 275.533L76.6667 266L84 288C82.5062 281.522 73.8148 269.96 51 275.533Z" stroke="black" stroke-opacity="0.2"/>
<path d="M51 329.533L76.6667 320L84 342C82.5062 335.522 73.8148 323.96 51 329.533Z" stroke="black" stroke-opacity="0.2"/>
<path d="M147 275.533L172.667 266L180 288C178.506 281.522 169.815 269.96 147 275.533Z" stroke="black" stroke-opacity="0.2"/>
<path d="M147 329.533L172.667 320L180 342C178.506 335.522 169.815 323.96 147 329.533Z" stroke="black" stroke-opacity="0.2"/>
<path d="M195 276.533L220.667 267L228 289C226.506 282.522 217.815 270.96 195 276.533Z" stroke="black" stroke-opacity="0.2"/>
<path d="M195 330.533L220.667 321L228 343C226.506 336.522 217.815 324.96 195 330.533Z" stroke="black"/>
<path d="M24 284.467L-2.44444 294L-10 272C-8.4609 278.478 0.493828 290.04 24 284.467Z" stroke="black" stroke-opacity="0.2"/>
<path d="M24 338.467L-2.44444 348L-10 326C-8.4609 332.478 0.493828 344.04 24 338.467Z" stroke="black"/>
<path d="M120 284.467L93.5556 294L86 272C87.5391 278.478 96.4938 290.04 120 284.467Z" stroke="black" stroke-opacity="0.2"/>
<path d="M120 338.467L93.5556 348L86 326C87.5391 332.478 96.4938 344.04 120 338.467Z" stroke="black"/>
<path d="M72 284.467L45.5556 294L38 272C39.5391 278.478 48.4938 290.04 72 284.467Z" stroke="black" stroke-opacity="0.2"/>
<path d="M72 338.467L45.5556 348L38 326C39.5391 332.478 48.4938 344.04 72 338.467Z" stroke="black"/>
<path d="M168 284.467L141.556 294L134 272C135.539 278.478 144.494 290.04 168 284.467Z" stroke="black" stroke-opacity="0.2"/>
<path d="M168 338.467L141.556 348L134 326C135.539 332.478 144.494 344.04 168 338.467Z" stroke="black"/>
<path d="M216 284.467L189.556 294L182 272C183.539 278.478 192.494 290.04 216 284.467Z" stroke="black" stroke-opacity="0.2"/>
<path d="M216 338.467L189.556 348L182 326C183.539 332.478 192.494 344.04 216 338.467Z" stroke="black"/>
<path d="M3 215.533L28.6667 206L36 228C34.5062 221.522 25.8148 209.96 3 215.533Z" stroke="black" stroke-opacity="0.2"/>
<path d="M99 215.533L124.667 206L132 228C130.506 221.522 121.815 209.96 99 215.533Z" stroke="black" stroke-opacity="0.2"/>
<path d="M51 215.533L76.6667 206L84 228C82.5062 221.522 73.8148 209.96 51 215.533Z" stroke="black" stroke-opacity="0.2"/>
<path d="M147 215.533L172.667 206L180 228C178.506 221.522 169.815 209.96 147 215.533Z" stroke="black" stroke-opacity="0.2"/>
<path d="M195 215.533L220.667 206L228 228C226.506 221.522 217.815 209.96 195 215.533Z" stroke="black" stroke-opacity="0.2"/>
<path d="M24 224.467L-2.44444 234L-10 212C-8.4609 218.478 0.493828 230.04 24 224.467Z" stroke="black" stroke-opacity="0.2"/>
<path d="M120 224.467L93.5556 234L86 212C87.5391 218.478 96.4938 230.04 120 224.467Z" stroke="black" stroke-opacity="0.2"/>
<path d="M72 224.467L45.5556 234L38 212C39.5391 218.478 48.4938 230.04 72 224.467Z" stroke="black" stroke-opacity="0.2"/>
<path d="M168 224.467L141.556 234L134 212C135.539 218.478 144.494 230.04 168 224.467Z" stroke="black" stroke-opacity="0.2"/>
<path d="M216 224.467L189.556 234L182 212C183.539 218.478 192.494 230.04 216 224.467Z" stroke="black" stroke-opacity="0.2"/>
<path d="M3 245.533L28.6667 236L36 258C34.5062 251.522 25.8148 239.96 3 245.533Z" stroke="black" stroke-opacity="0.2"/>
<path d="M3 299.533L28.6667 290L36 312C34.5062 305.522 25.8148 293.96 3 299.533Z" stroke="black" stroke-opacity="0.2"/>
<path d="M99 245.533L124.667 236L132 258C130.506 251.522 121.815 239.96 99 245.533Z" stroke="black" stroke-opacity="0.2"/>
<path d="M99 299.533L124.667 290L132 312C130.506 305.522 121.815 293.96 99 299.533Z" stroke="black" stroke-opacity="0.2"/>
<path d="M51 245.533L76.6667 236L84 258C82.5062 251.522 73.8148 239.96 51 245.533Z" stroke="black" stroke-opacity="0.2"/>
<path d="M51 299.533L76.6667 290L84 312C82.5062 305.522 73.8148 293.96 51 299.533Z" stroke="black" stroke-opacity="0.2"/>
<path d="M147 245.533L172.667 236L180 258C178.506 251.522 169.815 239.96 147 245.533Z" stroke="black" stroke-opacity="0.2"/>
<path d="M147 299.533L172.667 290L180 312C178.506 305.522 169.815 293.96 147 299.533Z" stroke="black" stroke-opacity="0.2"/>
<path d="M195 245.533L220.667 236L228 258C226.506 251.522 217.815 239.96 195 245.533Z" stroke="black" stroke-opacity="0.2"/>
<path d="M195 299.533L220.667 290L228 312C226.506 305.522 217.815 293.96 195 299.533Z" stroke="black" stroke-opacity="0.2"/>
<path d="M24 254.467L-2.44444 264L-10 242C-8.4609 248.478 0.493828 260.04 24 254.467Z" stroke="black" stroke-opacity="0.2"/>
<path d="M24 308.467L-2.44444 318L-10 296C-8.4609 302.478 0.493828 314.04 24 308.467Z" stroke="black" stroke-opacity="0.2"/>
<path d="M120 254.467L93.5556 264L86 242C87.5391 248.478 96.4938 260.04 120 254.467Z" stroke="black" stroke-opacity="0.2"/>
<path d="M120 308.467L93.5556 318L86 296C87.5391 302.478 96.4938 314.04 120 308.467Z" stroke="black" stroke-opacity="0.2"/>
<path d="M72 254.467L45.5556 264L38 242C39.5391 248.478 48.4938 260.04 72 254.467Z" stroke="black" stroke-opacity="0.2"/>
<path d="M72 308.467L45.5556 318L38 296C39.5391 302.478 48.4938 314.04 72 308.467Z" stroke="black" stroke-opacity="0.2"/>
<path d="M168 254.467L141.556 264L134 242C135.539 248.478 144.494 260.04 168 254.467Z" stroke="black" stroke-opacity="0.2"/>
<path d="M168 308.467L141.556 318L134 296C135.539 302.478 144.494 314.04 168 308.467Z" stroke="black" stroke-opacity="0.2"/>
<path d="M216 254.467L189.556 264L182 242C183.539 248.478 192.494 260.04 216 254.467Z" stroke="black" stroke-opacity="0.2"/>
<path d="M216 308.467L189.556 318L182 296C183.539 302.478 192.494 314.04 216 308.467Z" stroke="black" stroke-opacity="0.2"/>
</g>
<defs>
<clipPath id="clip0_1121_426">
<rect width="213" height="327" fill="white"/>
</clipPath>
</defs>
</svg>
